<svg width="36" height="35" viewBox="0 0 36 35" fill="none" xmlns="http://www.w3.org/2000/svg">
<path d="M35.95 17.5C35.95 27.1361 27.9148 34.95 18 34.95C8.08515 34.95 0.05 27.1361 0.05 17.5C0.05 7.86395 8.08515 0.05 18 0.05C27.9148 0.05 35.95 7.86395 35.95 17.5Z" fill="white" stroke="black" stroke-width="0.1"/>
<rect width="24" height="24" transform="translate(6 5)" fill="white"/>
<mask id="mask0" mask-type="alpha" maskUnits="userSpaceOnUse" x="8" y="10" width="16" height="16">
<path fill-rule="evenodd" clip-rule="evenodd" d="M8.00024 10.0002H23.5005V25.5016H8.00024V10.0002Z" fill="white"/>
</mask>
<g mask="url(#mask0)">
<path fill-rule="evenodd" clip-rule="evenodd" d="M12.8474 11.5016C12.4084 11.5016 12.1254 11.5016 12.0764 11.5036C11.3384 11.5346 10.6574 11.8476 10.1664 12.3836C9.70835 12.8846 9.47235 13.5246 9.50335 14.1886C9.50335 17.0816 9.50435 21.4236 9.51135 21.6616C9.62535 23.0466 10.9234 24.1056 12.4094 23.9916C15.1594 23.9956 19.2334 24.0046 19.4244 23.9976C20.1594 23.9676 20.8414 23.6556 21.3324 23.1206C21.7914 22.6216 22.0274 21.9816 21.9984 21.3206C21.9974 21.3096 21.9974 21.2986 21.9974 21.2876C21.9984 18.4276 21.9984 14.0886 21.9914 13.8556C21.8784 12.4636 20.5744 11.3916 19.0804 11.5086C17.0144 11.5056 14.1954 11.5016 12.8474 11.5016M12.1464 25.5016C10.0324 25.5026 8.18835 23.8826 8.01435 21.7576C8.01135 21.7166 8.00135 21.5916 8.00435 14.2226C7.95635 13.1916 8.33035 12.1676 9.06035 11.3706C9.82235 10.5386 10.8734 10.0536 12.0204 10.0046C12.1594 9.99459 16.9674 10.0066 19.0264 10.0106C21.2764 9.85259 23.3074 11.5226 23.4884 13.7636C23.4964 13.8726 23.4994 16.3976 23.4974 21.2726C23.5394 22.3286 23.1634 23.3456 22.4374 24.1356C21.6744 24.9666 20.6224 25.4496 19.4764 25.4966C19.3364 25.5066 14.5264 25.4936 12.4644 25.4896C12.3584 25.4976 12.2524 25.5016 12.1464 25.5016" fill="black"/>
</g>
<path fill-rule="evenodd" clip-rule="evenodd" d="M26.8186 23.3493C26.3676 23.3493 25.9226 23.1943 25.5556 22.8933L22.2746 20.1973C21.9546 19.9343 21.9086 19.4613 22.1716 19.1413C22.4336 18.8223 22.9066 18.7743 23.2266 19.0383L26.5066 21.7343C26.7276 21.9143 26.9496 21.8403 27.0356 21.7983C27.1216 21.7583 27.3206 21.6333 27.3206 21.3493L27.3326 14.0003C27.3336 13.7163 27.1336 13.5913 27.0476 13.5503C26.9626 13.5103 26.7376 13.4353 26.5186 13.6153L23.2256 16.3103C22.9036 16.5733 22.4326 16.5263 22.1706 16.2043C21.9076 15.8843 21.9556 15.4123 22.2756 15.1503L25.5686 12.4543C26.1726 11.9593 26.9856 11.8623 27.6906 12.1953C28.3956 12.5303 28.8336 13.2223 28.8326 14.0023L28.8206 21.3513C28.8196 22.1313 28.3806 22.8233 27.6766 23.1553C27.4006 23.2863 27.1086 23.3493 26.8186 23.3493" fill="black"/>
</svg>
